<?xml version="1.0" standalone="no"?>
<!DOCTYPE svg PUBLIC "-//W3C//DTD SVG 20010904//EN"
 "http://www.w3.org/TR/2001/REC-SVG-20010904/DTD/svg10.dtd">
<svg version="1.0" xmlns="http://www.w3.org/2000/svg"
 width="1334.000000pt" height="368.000000pt" viewBox="0 0 1334.000000 368.000000"
 preserveAspectRatio="xMidYMid meet">

<g transform="translate(0.000000,368.000000) scale(0.100000,-0.100000)"
fill="#000000" stroke="none">
<path d="M0 1840 l0 -1840 6670 0 6670 0 0 1840 0 1840 -6670 0 -6670 0 0
-1840z m2282 1579 c29 -6 64 -13 77 -16 20 -3 22 -6 10 -13 -9 -6 -1 -7 23 -4
60 10 262 -63 426 -154 58 -32 79 -48 70 -55 -9 -6 -8 -7 5 -3 27 9 183 -96
172 -115 -3 -4 0 -11 6 -15 8 -4 9 -3 5 4 -13 21 4 13 39 -19 19 -18 32 -36
28 -42 -3 -6 -2 -7 4 -4 10 6 86 -68 146 -144 26 -32 35 -52 31 -70 -3 -19 -3
-20 4 -5 7 16 11 15 33 -15 66 -91 119 -188 164 -304 39 -103 43 -115 60 -177
8 -32 22 -84 32 -115 22 -77 25 -504 4 -603 -54 -261 -146 -466 -302 -681
-172 -236 -456 -446 -739 -547 -187 -66 -231 -74 -435 -80 -201 -5 -303 4
-454 39 -310 73 -528 189 -743 397 -37 36 -65 69 -62 74 3 4 -1 8 -10 8 -35 0
-171 190 -253 353 -90 181 -163 407 -148 464 4 18 2 23 -6 17 -9 -5 -10 1 -6
23 3 17 1 35 -5 41 -16 16 -3 390 16 475 43 185 127 424 146 412 5 -3 12 0 16
6 4 8 3 9 -4 5 -19 -11 -14 4 19 63 169 300 443 551 747 684 80 36 302 102
390 117 72 12 434 11 494 -1z m5188 -1114 c0 -490 -5 -588 -24 -509 -4 14 -18
37 -31 50 l-24 24 -3 480 -3 480 21 0 c20 0 21 -6 27 -142 4 -79 4 -297 2
-486 -4 -263 -2 -349 7 -367 11 -19 12 70 10 477 -3 465 -2 528 13 528 3 0 5
-241 5 -535z m-3155 452 c4 5 5 2 1 -5 -4 -7 -3 -19 4 -27 6 -7 29 -49 51 -92
60 -120 135 -238 148 -235 7 1 10 -2 7 -7 -3 -5 1 -11 9 -15 8 -3 15 -11 15
-17 0 -8 -4 -8 -15 1 -9 8 -5 -8 11 -38 19 -37 31 -49 43 -45 12 4 13 3 3 -5
-11 -7 -8 -19 14 -58 56 -101 248 -441 275 -487 16 -26 29 -50 29 -53 0 -3 20
-39 45 -80 25 -40 45 -76 45 -80 0 -17 234 -413 241 -408 5 3 7 -1 4 -8 -3 -7
2 -24 9 -38 8 -14 22 -40 31 -57 10 -18 21 -33 26 -33 5 0 8 -3 7 -7 -1 -5 6
-23 16 -42 14 -27 20 -31 28 -20 6 10 7 7 3 -10 -5 -17 -4 -22 5 -16 9 5 11 4
6 -3 -8 -14 40 -92 57 -92 6 0 19 4 27 10 12 7 11 10 -5 16 -11 4 -28 15 -38
26 -15 15 -15 18 -2 18 12 0 13 3 3 19 -7 11 -16 17 -22 14 -5 -3 -6 -1 -2 6
9 14 -21 64 -33 56 -5 -2 -19 16 -31 42 -12 25 -28 52 -35 60 -8 7 -11 21 -8
30 4 11 3 14 -5 9 -8 -4 -10 -2 -6 8 3 9 -2 17 -14 20 -14 5 -18 13 -15 26 3
11 1 20 -5 20 -5 0 -15 13 -22 30 -7 16 -16 28 -20 25 -5 -3 -12 9 -16 27 -4
18 -9 36 -10 41 -1 4 -2 12 -3 18 0 6 -8 9 -16 5 -9 -3 -16 1 -16 9 -1 8 -2
18 -4 23 -15 56 -19 62 -39 63 -11 0 -16 3 -9 5 7 3 9 12 6 20 -3 7 -9 11 -14
8 -5 -3 -6 1 -4 9 3 7 -6 26 -20 41 -14 15 -25 33 -24 39 4 18 -23 67 -32 61
-5 -3 -9 2 -9 10 0 9 -4 16 -10 16 -5 0 -7 7 -4 15 3 8 -3 27 -13 42 -10 15
-25 42 -33 58 -8 17 -18 35 -23 40 -24 32 -59 91 -76 129 -11 23 -27 48 -35
55 -8 7 -18 26 -21 42 -4 16 -12 35 -19 42 -6 6 -21 30 -32 52 -48 92 -69 130
-76 133 -5 2 -8 10 -8 18 0 8 -5 14 -12 14 -6 0 -9 3 -5 6 8 9 -32 86 -41 80
-4 -3 -9 4 -9 16 -1 11 -10 32 -20 46 -19 29 -33 54 -77 137 -16 30 -32 52
-36 50 -4 -3 -13 14 -19 38 -14 56 -96 194 -118 200 -15 4 -15 5 3 6 26 1 50
-31 107 -146 25 -50 70 -132 100 -184 30 -52 82 -146 117 -209 77 -142 151
-274 202 -362 21 -36 122 -216 224 -400 103 -183 209 -372 236 -421 27 -48 46
-92 42 -99 -4 -6 -3 -8 3 -5 6 4 26 -18 44 -49 52 -84 58 -92 59 -73 0 17
-159 319 -280 529 -21 36 -53 94 -73 130 -19 36 -117 211 -217 390 -100 179
-211 378 -246 442 -35 65 -107 192 -159 283 -52 92 -95 168 -95 171 0 7 425 4
436 -4 7 -4 28 -31 48 -61 25 -39 34 -62 31 -80 -4 -20 -3 -22 3 -7 7 16 15 7
46 -55 21 -41 58 -111 83 -156 24 -46 41 -88 37 -94 -4 -8 -3 -9 4 -5 7 4 18
-7 28 -26 9 -18 48 -88 86 -155 40 -70 66 -128 62 -134 -4 -7 -3 -9 3 -6 6 4
25 -19 42 -51 17 -31 41 -75 54 -97 12 -22 44 -80 71 -129 27 -50 70 -124 95
-166 l46 -76 39 53 c29 39 42 50 49 41 6 -9 7 -7 3 6 -5 14 16 41 86 112 50
52 96 94 101 94 5 0 3 -8 -4 -17 -13 -16 -12 -17 3 -4 10 7 15 17 12 22 -2 5
25 31 63 58 199 146 404 214 648 215 184 0 333 -46 501 -157 79 -52 226 -195
248 -241 25 -52 29 -165 21 -559 l-7 -376 -164 2 c-95 1 -167 6 -173 12 -7 7
-11 135 -11 357 l-1 346 -27 54 c-40 79 -82 100 -190 95 -47 -2 -88 -9 -95
-16 -9 -9 -13 -116 -17 -419 -3 -224 -9 -413 -13 -419 -6 -10 -61 -13 -220
-13 -117 0 -229 3 -249 6 l-38 7 0 356 c0 196 -4 362 -9 370 -16 25 -129 -49
-217 -143 -111 -118 -199 -276 -282 -511 -23 -64 -33 -81 -50 -83 -12 -2 -22
1 -22 6 0 5 -24 4 -56 -2 -68 -12 -66 -13 -145 128 -29 50 -61 107 -72 126
-11 19 -51 91 -89 160 -39 69 -85 150 -103 180 -18 30 -49 87 -70 125 -54 100
-304 543 -330 585 -12 19 -43 76 -70 125 -48 89 -159 287 -281 502 -67 116
-84 159 -36 85 16 -23 32 -39 37 -35z m2299 57 c14 -13 16 -55 16 -309 l0
-293 -47 -6 c-27 -3 -79 -8 -118 -12 -38 -3 -128 -21 -200 -39 -71 -18 -134
-29 -139 -25 -10 10 -12 141 -8 467 2 201 4 222 20 226 9 3 117 5 239 6 189 1
224 -1 237 -15z m698 -412 c-3 -315 -2 -434 7 -450 18 -33 -7 -28 -49 9 -62
55 -245 159 -279 159 -29 0 -32 37 -36 361 -3 182 -2 336 1 340 3 5 85 9 183
9 l178 0 -5 -428z m50 341 c-5 -124 -22 -131 -22 -10 0 71 3 97 13 97 9 0 11
-22 9 -87z m-5 -265 c-2 -24 -4 -7 -4 37 0 44 2 63 4 43 2 -21 2 -57 0 -80z
m879 -43 c71 -30 115 -80 139 -160 10 -32 10 -50 -1 -93 -43 -165 -205 -230
-342 -138 -58 39 -102 119 -102 186 0 58 38 140 78 169 69 49 162 64 228 36z
m742 -14 c47 -24 76 -56 66 -72 -4 -8 -3 -10 5 -5 21 14 43 -62 39 -136 -4
-82 -40 -140 -108 -178 -54 -29 -156 -33 -205 -7 -75 39 -125 121 -125 207 0
80 54 176 94 164 15 -4 17 -3 7 4 -11 8 -9 12 10 22 63 34 151 35 217 1z
m-1621 -78 c-2 -16 -4 -3 -4 27 0 30 2 43 4 28 2 -16 2 -40 0 -55z m15 -440
c3 -26 1 -30 -10 -21 -7 6 -11 17 -8 23 2 7 1 16 -3 21 -3 5 -4 90 -2 189 l5
180 7 -180 c5 -99 9 -194 11 -212z m-10 -699 c0 -179 -2 -328 -6 -331 -3 -3
-6 143 -6 325 0 181 -3 339 -6 349 -5 17 -5 17 6 0 8 -13 12 -114 12 -343z
m72 -86 c1 -181 4 -328 8 -328 5 0 8 147 8 326 0 214 3 323 10 319 6 -4 10
-126 10 -333 l0 -327 -63 0 c-60 1 -62 1 -59 25 5 32 12 39 12 12 0 -13 6 -22
15 -22 14 0 15 42 13 349 -2 192 0 347 5 344 4 -2 7 2 7 9 1 7 8 0 17 -17 15
-26 17 -71 17 -357z m821 273 c109 -44 156 -204 92 -314 -42 -72 -103 -107
-185 -107 -37 0 -78 7 -97 15 -75 36 -135 127 -135 205 0 86 60 185 106 174
12 -3 25 -1 28 4 4 6 -2 8 -14 5 -26 -7 -26 3 1 18 52 27 133 27 204 0z m754
0 c21 -11 52 -36 69 -56 32 -35 43 -63 20 -49 -7 4 -8 3 -4 -5 4 -6 11 -9 16
-6 22 14 31 -115 11 -166 -16 -42 -72 -100 -116 -120 -48 -22 -123 -24 -169
-5 -55 23 -113 82 -130 133 -37 109 -4 203 92 264 38 24 57 29 109 29 43 0 76
-6 102 -19z"/>
<path d="M1813 3403 c9 -2 23 -2 30 0 6 3 -1 5 -18 5 -16 0 -22 -2 -12 -5z"/>
<path d="M1696 3384 c-56 -15 -63 -19 -41 -28 9 -3 14 -2 11 3 -3 4 8 8 24 9
16 0 40 8 52 16 26 18 21 18 -46 0z"/>
<path d="M2520 3340 c0 -4 9 -10 20 -13 11 -3 20 -2 20 3 0 4 -9 10 -20 13
-11 3 -20 2 -20 -3z"/>
<path d="M1513 3325 c0 -7 6 -11 14 -8 7 3 13 6 13 8 0 2 -6 5 -13 8 -8 3 -14
-1 -14 -8z"/>
<path d="M1850 3284 c-222 -41 -296 -65 -460 -150 -210 -110 -421 -295 -543
-479 -132 -200 -212 -402 -242 -615 -17 -119 -20 -315 -6 -387 5 -26 15 -77
22 -113 16 -86 65 -234 101 -307 6 -11 7 -27 3 -34 -5 -7 -4 -10 1 -6 13 8 67
-90 58 -105 -4 -6 -3 -8 4 -4 6 3 27 -18 49 -50 48 -72 135 -175 201 -238 27
-27 49 -54 48 -60 -2 -6 -1 -8 1 -3 5 7 35 -12 88 -57 22 -19 25 -24 10 -20
-16 5 -17 4 -5 -4 8 -6 18 -8 22 -5 5 2 23 -6 41 -19 47 -35 186 -113 230
-129 20 -7 37 -17 37 -23 0 -5 3 -7 6 -4 3 3 31 -3 62 -14 61 -22 88 -30 192
-54 88 -21 461 -24 540 -5 126 32 271 84 364 131 105 53 110 55 102 41 -4 -5
4 -7 16 -3 19 5 20 6 4 12 -13 4 0 17 56 52 40 26 119 90 174 142 56 52 105
92 109 88 5 -4 5 -2 2 4 -7 13 81 120 95 116 5 -1 7 2 3 8 -3 5 8 31 26 56 24
35 34 43 41 33 7 -10 8 -8 4 6 -6 21 65 170 76 159 3 -3 5 1 4 8 0 7 17 66 38
131 29 85 43 116 53 112 8 -2 11 0 8 5 -3 6 -2 10 3 10 11 0 32 76 24 85 -3 3
-11 -5 -18 -17 -10 -19 -12 -6 -7 77 3 55 8 103 12 107 3 4 5 -27 3 -70 -5
-92 5 -93 13 -1 3 35 9 100 14 144 4 44 5 82 1 85 -4 3 -12 37 -17 75 l-10 70
-3 -55 -3 -55 -10 80 c-6 44 -10 100 -10 124 0 24 -3 38 -7 31 -4 -7 -12 8
-19 37 -33 130 -118 305 -220 447 -31 43 -55 83 -54 88 2 4 0 7 -5 6 -12 -4
-181 175 -175 185 3 6 1 7 -5 3 -6 -4 -36 13 -66 37 -29 25 -90 66 -134 93
-45 26 -79 52 -76 56 3 4 -2 5 -10 2 -8 -3 -25 1 -38 10 -35 23 -172 73 -278
103 -87 24 -113 26 -305 29 -115 1 -221 0 -235 -2z m404 -679 c4 -14 2 -53 -3
-88 -6 -34 -19 -159 -31 -277 -11 -118 -22 -230 -24 -247 -3 -20 0 -33 6 -33
28 0 350 134 508 211 l95 47 18 -34 c15 -29 39 -97 102 -283 8 -24 13 -47 10
-51 -3 -5 1 -10 7 -13 7 -2 10 -8 6 -12 -4 -4 -14 -2 -23 5 -9 7 -18 10 -22 6
-3 -3 0 -6 8 -6 41 -1 -103 -43 -221 -65 -19 -4 -62 -13 -95 -20 -33 -7 -94
-21 -135 -30 -170 -37 -169 -36 -161 -59 5 -12 6 -26 4 -33 -2 -6 1 -14 6 -18
7 -4 8 1 4 12 -4 12 4 9 25 -11 32 -30 46 -60 17 -36 -13 11 -14 10 -9 -4 3
-9 12 -15 19 -14 11 3 96 -83 299 -300 32 -35 56 -66 52 -69 -3 -3 -14 5 -25
18 -11 13 -20 19 -21 12 0 -6 14 -23 31 -38 17 -14 30 -27 28 -29 -2 -2 -23
-17 -45 -32 -23 -16 -78 -54 -122 -85 -44 -32 -99 -67 -122 -80 -40 -23 -41
-23 -60 -3 -10 10 -64 98 -119 195 -108 191 -181 309 -204 327 -24 20 -31 9
-246 -368 -108 -190 -104 -185 -133 -169 -13 6 -25 15 -28 19 -3 4 -28 23 -56
43 -164 114 -224 159 -224 168 0 6 4 8 9 4 5 -3 12 -1 16 5 3 5 1 10 -5 10 -6
0 -2 12 9 26 39 50 193 213 200 212 10 -3 51 26 51 36 0 5 -11 -1 -25 -14 -47
-44 -25 -4 25 45 28 27 50 44 50 37 0 -7 5 -12 11 -12 8 0 7 5 -1 15 -11 13
-8 21 17 48 41 45 66 88 56 97 -18 18 -174 57 -393 100 -52 10 -126 26 -163
36 l-68 18 6 48 c4 27 20 86 37 131 16 45 36 101 45 125 15 43 41 62 83 62 10
0 68 -23 129 -51 90 -42 109 -55 106 -70 -2 -11 0 -17 6 -14 5 4 7 11 4 16
-12 18 19 8 144 -45 69 -30 137 -57 150 -61 l24 -7 -8 128 c-5 71 -9 154 -9
186 -1 31 -4 54 -7 52 -4 -2 -10 38 -13 89 -4 50 -9 119 -12 151 -6 52 -4 58
10 53 9 -4 16 -2 16 3 0 6 74 10 189 10 l189 0 6 -25z m1253 -782 c-2 -16 -4
-3 -4 27 0 30 2 43 4 28 2 -16 2 -40 0 -55z"/>
<path d="M2155 2595 c23 -8 85 -10 85 -3 0 4 -21 8 -47 7 -27 0 -43 -2 -38 -4z"/>
<path d="M1861 2504 c0 -11 3 -14 6 -6 3 7 2 16 -1 19 -3 4 -6 -2 -5 -13z"/>
<path d="M2759 2183 c-1 -5 -1 -12 0 -16 1 -5 -7 -6 -18 -2 -11 3 -22 1 -26
-5 -11 -18 36 -11 62 10 25 19 25 20 4 20 -11 0 -22 -3 -22 -7z"/>
<path d="M1430 2126 c28 -17 50 -21 35 -7 -6 5 -21 12 -35 15 l-25 7 25 -15z"/>
<path d="M2629 2114 c-25 -14 -11 -17 31 -5 19 5 21 8 9 13 -8 3 -26 0 -40 -8z"/>
<path d="M2838 2095 c2 -14 8 -25 12 -25 10 0 1 38 -10 45 -4 2 -5 -7 -2 -20z"/>
<path d="M1496 2095 c10 -8 26 -14 34 -14 9 0 4 6 -10 14 -33 19 -49 19 -24 0z"/>
<path d="M2540 2078 c-25 -12 -40 -23 -33 -25 7 -3 32 7 55 21 51 31 41 32
-22 4z"/>
<path d="M1225 2035 c-15 -74 -16 -81 -4 -62 10 17 21 87 13 87 -2 0 -6 -11
-9 -25z"/>
<path d="M1605 2050 c3 -5 11 -10 16 -10 6 0 7 5 4 10 -3 6 -11 10 -16 10 -6
0 -7 -4 -4 -10z"/>
<path d="M2455 2040 c-19 -8 -19 -9 3 -9 12 -1 22 4 22 9 0 6 -1 10 -2 9 -2 0
-12 -4 -23 -9z"/>
<path d="M2416 2021 c-3 -5 1 -11 9 -15 8 -3 15 -1 15 4 0 13 -18 22 -24 11z"/>
<path d="M1700 2010 c8 -5 20 -10 25 -10 6 0 3 5 -5 10 -8 5 -19 10 -25 10 -5
0 -3 -5 5 -10z"/>
<path d="M2375 2008 c-11 -7 -27 -13 -35 -15 -20 -3 -130 -51 -130 -57 0 -2 7
-7 16 -10 8 -3 12 -2 9 4 -3 6 5 10 19 10 13 0 31 7 40 15 8 8 23 15 34 15 22
0 94 29 74 30 -7 0 -10 5 -7 10 8 13 5 12 -20 -2z"/>
<path d="M1905 1999 c-4 -6 -5 -12 -2 -15 2 -3 7 2 10 11 7 17 1 20 -8 4z"/>
<path d="M1782 1975 c9 -10 21 -16 28 -13 7 2 -1 10 -16 17 -27 12 -28 11 -12
-4z"/>
<path d="M2765 1805 c-39 -14 -40 -14 -5 -8 41 7 82 22 60 22 -8 0 -33 -7 -55
-14z"/>
<path d="M2678 1783 c6 -2 18 -2 25 0 6 3 1 5 -13 5 -14 0 -19 -2 -12 -5z"/>
<path d="M2528 1753 c7 -3 16 -2 19 1 4 3 -2 6 -13 5 -11 0 -14 -3 -6 -6z"/>
<path d="M2368 1713 c6 -2 18 -2 25 0 6 3 1 5 -13 5 -14 0 -19 -2 -12 -5z"/>
<path d="M2391 1514 c13 -17 26 -30 28 -27 3 2 -8 16 -24 31 l-28 27 24 -31z"/>
<path d="M2478 1413 c38 -48 82 -89 82 -77 0 5 -21 29 -45 53 -25 25 -45 49
-45 53 0 4 -5 8 -11 8 -6 0 3 -17 19 -37z"/>
<path d="M1965 1429 c-11 -17 1 -21 15 -4 8 9 8 15 2 15 -6 0 -14 -5 -17 -11z"/>
<path d="M1330 3256 l-25 -14 26 1 c14 1 26 8 26 15 0 6 -1 12 -1 12 -1 -1
-12 -7 -26 -14z"/>
<path d="M1240 3210 c-8 -5 -12 -11 -10 -14 3 -2 14 2 24 10 22 15 10 19 -14
4z"/>
<path d="M1176 3171 c-4 -5 1 -8 9 -7 21 3 31 16 12 16 -9 0 -18 -4 -21 -9z"/>
<path d="M1115 3129 c-11 -17 1 -21 15 -4 8 9 8 15 2 15 -6 0 -14 -5 -17 -11z"/>
<path d="M2950 3136 c0 -3 9 -10 20 -16 11 -6 20 -8 20 -6 0 3 -9 10 -20 16
-11 6 -20 8 -20 6z"/>
<path d="M1087 3103 c-4 -6 0 -13 8 -17 8 -3 17 0 21 6 4 6 3 8 -4 4 -5 -3
-12 -1 -14 6 -3 8 -6 9 -11 1z"/>
<path d="M3000 3091 c0 -5 7 -12 16 -15 24 -9 27 -7 10 9 -17 17 -26 19 -26 6z"/>
<path d="M3150 2966 c0 -2 7 -9 15 -16 13 -11 14 -10 9 4 -5 14 -24 23 -24 12z"/>
<path d="M3190 2930 c0 -5 5 -10 11 -10 5 0 7 5 4 10 -3 6 -8 10 -11 10 -2 0
-4 -4 -4 -10z"/>
<path d="M3221 2891 c13 -11 26 -18 28 -16 6 6 -27 35 -39 35 -7 0 -2 -9 11
-19z"/>
<path d="M3260 2854 c0 -6 7 -17 15 -24 8 -7 12 -16 9 -21 -3 -5 0 -9 5 -9 6
0 11 3 11 8 -1 12 -40 58 -40 46z"/>
<path d="M3465 2530 c-3 -5 -1 -10 4 -10 6 0 11 -6 11 -14 0 -8 4 -17 10 -21
5 -3 5 7 -1 25 -12 33 -15 35 -24 20z"/>
<path d="M727 2513 c-4 -3 -7 -11 -7 -17 0 -6 5 -5 12 2 6 6 9 14 7 17 -3 3
-9 2 -12 -2z"/>
<path d="M586 2465 c-3 -9 -6 -22 -5 -28 0 -7 5 -1 10 12 5 13 8 26 5 28 -2 2
-6 -3 -10 -12z"/>
<path d="M705 2461 c-3 -12 -10 -19 -14 -17 -4 3 -8 -4 -8 -15 -1 -10 0 -19 2
-19 8 0 37 62 32 67 -3 2 -8 -5 -12 -16z"/>
<path d="M567 2413 c-4 -3 -7 -13 -7 -22 1 -13 3 -13 11 2 11 19 8 33 -4 20z"/>
<path d="M3520 2381 c0 -5 5 -13 10 -16 6 -3 10 -2 10 4 0 5 -4 13 -10 16 -5
3 -10 2 -10 -4z"/>
<path d="M547 2363 c-3 -5 -5 -28 -4 -53 0 -37 1 -41 8 -21 5 13 8 36 7 52 -2
31 -4 34 -11 22z"/>
<path d="M3426 2337 c3 -10 9 -15 12 -12 3 3 0 11 -7 18 -10 9 -11 8 -5 -6z"/>
<path d="M646 2323 c-6 -14 -5 -15 5 -6 7 7 10 15 7 18 -3 3 -9 -2 -12 -12z"/>
<path d="M3549 2335 c-3 -6 0 -26 7 -45 7 -20 13 -26 12 -15 0 31 -13 71 -19
60z"/>
<path d="M521 2264 c0 -11 3 -14 6 -6 3 7 2 16 -1 19 -3 4 -6 -2 -5 -13z"/>
<path d="M501 2170 c-1 -20 -6 -41 -13 -48 -6 -6 -9 -14 -6 -18 4 -3 13 5 22
18 11 17 13 31 7 53 l-9 30 -1 -35z"/>
<path d="M3590 2171 c0 -17 4 -32 8 -35 4 -2 6 11 4 30 -5 42 -12 45 -12 5z"/>
<path d="M472 2060 c0 -14 2 -19 5 -12 2 6 2 18 0 25 -3 6 -5 1 -5 -13z"/>
<path d="M3600 2058 c0 -19 2 -20 10 -8 13 19 13 30 0 30 -5 0 -10 -10 -10
-22z"/>
<path d="M3605 2020 c-3 -5 -1 -18 4 -27 9 -16 10 -14 11 10 0 28 -5 34 -15
17z"/>
<path d="M467 1987 c-6 -17 -9 -293 -3 -287 5 5 16 300 11 300 -2 0 -5 -6 -8
-13z"/>
<path d="M572 1975 c0 -16 2 -22 5 -12 2 9 2 23 0 30 -3 6 -5 -1 -5 -18z"/>
<path d="M567 1873 c-3 -5 -1 -28 3 -53 l7 -45 2 53 c1 49 -2 62 -12 45z"/>
<path d="M573 1735 c0 -22 2 -30 4 -17 2 12 2 30 0 40 -3 9 -5 -1 -4 -23z"/>
<path d="M3609 1708 c0 -13 -2 -38 -3 -55 -2 -18 0 -33 5 -33 5 0 9 25 9 55 0
30 -2 55 -5 55 -3 0 -5 -10 -6 -22z"/>
<path d="M3601 1583 c0 -13 -5 -23 -10 -23 -5 0 -9 -24 -9 -52 l0 -53 14 60
c8 33 13 66 10 75 -2 9 -4 5 -5 -7z"/>
<path d="M3461 1453 c0 -25 1 -26 9 -8 12 27 12 35 0 35 -5 0 -10 -12 -9 -27z"/>
<path d="M3565 1439 c-4 -6 -5 -12 -2 -15 2 -3 7 2 10 11 7 17 1 20 -8 4z"/>
<path d="M640 1386 c0 -8 4 -17 9 -20 5 -4 7 3 4 14 -6 23 -13 26 -13 6z"/>
<path d="M540 1323 c0 -4 5 -15 10 -23 8 -13 10 -13 10 2 0 9 -4 20 -10 23 -5
3 -10 3 -10 -2z"/>
<path d="M3525 1299 c-4 -6 -5 -12 -2 -15 2 -3 7 2 10 11 7 17 1 20 -8 4z"/>
<path d="M620 1141 c0 -6 4 -13 10 -16 6 -3 7 1 4 9 -7 18 -14 21 -14 7z"/>
<path d="M801 1044 c0 -11 3 -14 6 -6 3 7 2 16 -1 19 -3 4 -6 -2 -5 -13z"/>
<path d="M3267 1033 c-10 -9 -9 -23 1 -23 5 0 9 7 9 15 0 17 -1 18 -10 8z"/>
<path d="M3365 989 c-11 -17 1 -21 15 -4 8 9 8 15 2 15 -6 0 -14 -5 -17 -11z"/>
<path d="M846 977 c3 -10 9 -15 12 -12 3 3 0 11 -7 18 -10 9 -11 8 -5 -6z"/>
<path d="M3242 810 c-7 -11 -8 -20 -3 -20 9 0 24 30 18 36 -1 2 -8 -6 -15 -16z"/>
<path d="M1125 690 c3 -5 8 -10 11 -10 2 0 4 5 4 10 0 6 -5 10 -11 10 -5 0 -7
-4 -4 -10z"/>
<path d="M2848 614 c-16 -8 -28 -19 -28 -25 0 -6 14 -1 30 11 17 12 30 23 30
26 0 6 -1 5 -32 -12z"/>
<path d="M1230 616 c0 -2 7 -9 15 -16 9 -7 15 -8 15 -2 0 5 -7 12 -15 16 -8 3
-15 4 -15 2z"/>
<path d="M1280 584 c0 -8 32 -33 43 -34 5 0 5 4 2 10 -8 13 -45 33 -45 24z"/>
<path d="M1380 526 c0 -2 7 -7 16 -10 8 -3 12 -2 9 4 -6 10 -25 14 -25 6z"/>
<path d="M1428 498 c5 -5 16 -8 23 -6 8 3 3 7 -10 11 -17 4 -21 3 -13 -5z"/>
<path d="M2620 489 c-25 -12 -56 -25 -69 -30 -13 -5 -21 -12 -18 -16 6 -6 137
54 137 62 0 7 0 7 -50 -16z"/>
<path d="M1548 443 c7 -3 16 -2 19 1 4 3 -2 6 -13 5 -11 0 -14 -3 -6 -6z"/>
<path d="M1610 426 c0 -2 7 -6 15 -10 8 -3 15 -1 15 4 0 6 -7 10 -15 10 -8 0
-15 -2 -15 -4z"/>
<path d="M2458 423 c6 -2 18 -2 25 0 6 3 1 5 -13 5 -14 0 -19 -2 -12 -5z"/>
<path d="M2415 410 c-19 -8 -19 -9 3 -9 12 -1 22 4 22 9 0 6 -1 10 -2 9 -2 0
-12 -4 -23 -9z"/>
<path d="M1680 406 c0 -2 7 -7 16 -10 8 -3 12 -2 9 4 -6 10 -25 14 -25 6z"/>
<path d="M1770 386 c0 -2 9 -6 20 -9 11 -3 18 -1 14 4 -5 9 -34 13 -34 5z"/>
<path d="M1913 363 c9 -2 23 -2 30 0 6 3 -1 5 -18 5 -16 0 -22 -2 -12 -5z"/>
<path d="M2605 350 c-3 -6 1 -7 9 -4 18 7 21 14 7 14 -6 0 -13 -4 -16 -10z"/>
<path d="M4498 2811 c-31 -3 -60 -10 -65 -15 -4 -5 1 -6 12 -3 11 3 97 7 192
9 94 1 170 5 168 9 -5 8 -234 8 -307 0z"/>
<path d="M4810 2772 c0 -5 11 -19 25 -32 l24 -23 -12 32 c-10 28 -37 44 -37
23z"/>
<path d="M4960 2518 c0 -9 7 -22 17 -29 15 -13 15 -12 3 11 -17 34 -20 36 -20
18z"/>
<path d="M5025 2400 c3 -5 8 -10 11 -10 2 0 4 5 4 10 0 6 -5 10 -11 10 -5 0
-7 -4 -4 -10z"/>
<path d="M6370 2078 c-19 -5 -55 -13 -80 -18 -25 -4 -54 -11 -65 -15 -101 -35
-174 -75 -135 -75 6 0 10 5 10 10 0 6 6 10 13 9 6 -1 39 10 72 25 80 37 131
45 315 52 85 3 157 8 159 10 2 2 -48 4 -112 4 -63 0 -121 2 -129 4 -7 2 -29 0
-48 -6z"/>
<path d="M6710 2070 c8 -5 20 -10 25 -10 6 0 3 5 -5 10 -8 5 -19 10 -25 10 -5
0 -3 -5 5 -10z"/>
<path d="M6794 2045 c15 -9 40 -18 55 -20 25 -4 25 -4 -4 9 -16 8 -41 16 -55
20 -23 6 -23 6 4 -9z"/>
<path d="M6885 2010 c4 -6 24 -18 46 -27 21 -8 39 -19 39 -24 0 -5 17 -16 38
-26 20 -9 41 -19 46 -21 5 -3 6 0 2 6 -6 10 -160 102 -171 102 -3 0 -3 -5 0
-10z"/>
<path d="M5245 2000 c3 -5 8 -10 11 -10 2 0 4 5 4 10 0 6 -5 10 -11 10 -5 0
-7 -4 -4 -10z"/>
<path d="M6030 1959 l-35 -20 42 3 c24 2 43 6 43 11 0 4 -5 7 -11 7 -5 0 -7 5
-4 10 8 13 6 12 -35 -11z"/>
<path d="M5945 1900 c-3 -5 -1 -10 4 -10 6 0 11 5 11 10 0 6 -2 10 -4 10 -3 0
-8 -4 -11 -10z"/>
<path d="M7070 1894 c0 -10 3 -14 7 -11 3 4 12 2 20 -5 7 -6 15 -9 17 -7 2 2
-7 12 -20 22 -22 17 -24 17 -24 1z"/>
<path d="M7121 1857 c2 -1 13 -9 24 -17 19 -14 19 -14 6 3 -7 9 -18 17 -24 17
-6 0 -8 -1 -6 -3z"/>
<path d="M7170 1810 c8 -5 20 -10 25 -10 6 0 3 5 -5 10 -8 5 -19 10 -25 10 -5
0 -3 -5 5 -10z"/>
<path d="M5370 1781 c0 -6 4 -13 10 -16 6 -3 7 1 4 9 -7 18 -14 21 -14 7z"/>
<path d="M5770 1765 c-13 -14 -21 -25 -18 -25 10 0 51 40 46 45 -2 3 -15 -6
-28 -20z"/>
<path d="M5467 1614 c-3 -5 3 -20 14 -33 22 -27 25 -17 5 18 -7 13 -16 20 -19
15z"/>
<path d="M5726 1232 c-2 -4 -1 -14 3 -21 6 -9 11 -10 15 -2 4 6 2 11 -4 11 -6
0 -8 5 -5 10 3 6 4 10 1 10 -3 0 -7 -4 -10 -8z"/>
<path d="M5709 1173 c-13 -16 -12 -17 4 -4 16 13 21 21 13 21 -2 0 -10 -8 -17
-17z"/>
<path d="M5670 1100 c0 -11 2 -20 4 -20 2 0 6 9 9 20 3 11 1 20 -4 20 -5 0 -9
-9 -9 -20z"/>
<path d="M5630 1013 c0 -21 3 -24 9 -14 5 8 7 20 4 28 -8 21 -13 15 -13 -14z"/>
<path d="M6613 980 c0 -30 2 -43 4 -27 2 15 2 39 0 55 -2 15 -4 2 -4 -28z"/>
<path d="M5605 929 c-4 -6 -5 -12 -2 -15 2 -3 7 2 10 11 7 17 1 20 -8 4z"/>
<path d="M6122 858 c-2 -65 -1 -68 21 -67 16 1 17 3 5 6 -13 3 -18 18 -21 66
l-3 62 -2 -67z"/>
<path d="M6578 2803 c7 -3 16 -2 19 1 4 3 -2 6 -13 5 -11 0 -14 -3 -6 -6z"/>
<path d="M6962 2620 c0 -14 2 -19 5 -12 2 6 2 18 0 25 -3 6 -5 1 -5 -13z"/>
<path d="M7286 1971 c-3 -5 1 -11 9 -14 9 -4 12 -1 8 9 -6 16 -10 17 -17 5z"/>
<path d="M8020 2390 c-9 -6 -10 -10 -3 -10 6 0 15 5 18 10 8 12 4 12 -15 0z"/>
<path d="M8296 2372 c-2 -4 4 -14 15 -20 19 -12 19 -11 9 8 -12 22 -16 24 -24
12z"/>
<path d="M7976 2343 c-6 -14 -5 -15 5 -6 7 7 10 15 7 18 -3 3 -9 -2 -12 -12z"/>
<path d="M8699 2343 c-13 -16 -12 -17 4 -4 9 7 17 15 17 17 0 8 -8 3 -21 -13z"/>
<path d="M9051 2314 c0 -11 3 -14 6 -6 3 7 2 16 -1 19 -3 4 -6 -2 -5 -13z"/>
<path d="M8661 2254 c0 -11 3 -14 6 -6 3 7 2 16 -1 19 -3 4 -6 -2 -5 -13z"/>
<path d="M8138 1393 c7 -3 16 -2 19 1 4 3 -2 6 -13 5 -11 0 -14 -3 -6 -6z"/>
<path d="M8088 1383 c6 -2 18 -2 25 0 6 3 1 5 -13 5 -14 0 -19 -2 -12 -5z"/>
<path d="M8285 1341 c-3 -7 -2 -10 3 -9 5 2 19 -8 30 -22 12 -14 21 -20 22
-14 0 18 -47 57 -55 45z"/>
<path d="M8163 983 c9 -2 23 -2 30 0 6 3 -1 5 -18 5 -16 0 -22 -2 -12 -5z"/>
<path d="M8800 1365 c-20 -12 -42 -30 -50 -40 -8 -10 4 -4 28 13 24 17 49 33
55 35 7 2 10 7 7 9 -3 3 -21 -4 -40 -17z"/>
<path d="M9000 1371 c0 -9 30 -24 36 -18 2 1 -6 8 -16 15 -11 7 -20 8 -20 3z"/>
<path d="M9066 1317 c3 -10 9 -15 12 -12 3 3 0 11 -7 18 -10 9 -11 8 -5 -6z"/>
<path d="M8701 1194 c0 -11 3 -14 6 -6 3 7 2 16 -1 19 -3 4 -6 -2 -5 -13z"/>
</g>
</svg>
